<svg width="341" height="128" viewBox="0 0 341 128" fill="none" xmlns="http://www.w3.org/2000/svg">
<path d="M48.5625 43.9062H29.1562V104H21.2812V43.9062H1.92188V36.7812H48.5625V43.9062ZM100.406 101.188C95.4375 103.812 89.25 105.125 81.8438 105.125C72.2812 105.125 64.625 102.047 58.875 95.8906C53.125 89.7344 50.25 81.6562 50.25 71.6562C50.25 60.9062 53.4844 52.2188 59.9531 45.5938C66.4219 38.9688 74.625 35.6562 84.5625 35.6562C90.9375 35.6562 96.2188 36.5781 100.406 38.4219V46.8125C95.5938 44.125 90.2812 42.7812 84.4688 42.7812C76.75 42.7812 70.4844 45.3594 65.6719 50.5156C60.8906 55.6719 58.5 62.5625 58.5 71.1875C58.5 79.375 60.7344 85.9062 65.2031 90.7812C69.7031 95.625 75.5938 98.0469 82.875 98.0469C89.625 98.0469 95.4688 96.5469 100.406 93.5469V101.188ZM157.219 101.188C152.25 103.812 146.062 105.125 138.656 105.125C129.094 105.125 121.438 102.047 115.688 95.8906C109.938 89.7344 107.062 81.6562 107.062 71.6562C107.062 60.9062 110.297 52.2188 116.766 45.5938C123.234 38.9688 131.438 35.6562 141.375 35.6562C147.75 35.6562 153.031 36.5781 157.219 38.4219V46.8125C152.406 44.125 147.094 42.7812 141.281 42.7812C133.562 42.7812 127.297 45.3594 122.484 50.5156C117.703 55.6719 115.312 62.5625 115.312 71.1875C115.312 79.375 117.547 85.9062 122.016 90.7812C126.516 95.625 132.406 98.0469 139.688 98.0469C146.438 98.0469 152.281 96.5469 157.219 93.5469V101.188Z" fill="black"/>
<path d="M214.562 104H209.344V73.9375C209.344 71.5625 209.49 68.6562 209.781 65.2188H209.656C209.156 67.2396 208.708 68.6875 208.312 69.5625L193 104H190.438L175.156 69.8125C174.719 68.8125 174.271 67.2812 173.812 65.2188H173.688C173.854 67.0104 173.938 69.9375 173.938 74V104H168.875V59.1875H175.812L189.562 90.4375C190.625 92.8333 191.312 94.625 191.625 95.8125H191.812C192.708 93.3542 193.427 91.5208 193.969 90.3125L208 59.1875H214.562V104ZM248.594 104H243.469V99H243.344C241.115 102.833 237.833 104.75 233.5 104.75C230.312 104.75 227.812 103.906 226 102.219C224.208 100.531 223.312 98.2917 223.312 95.5C223.312 89.5208 226.833 86.0417 233.875 85.0625L243.469 83.7188C243.469 78.2812 241.271 75.5625 236.875 75.5625C233.021 75.5625 229.542 76.875 226.438 79.5V74.25C229.583 72.25 233.208 71.25 237.312 71.25C244.833 71.25 248.594 75.2292 248.594 83.1875V104ZM243.469 87.8125L235.75 88.875C233.375 89.2083 231.583 89.8021 230.375 90.6562C229.167 91.4896 228.562 92.9792 228.562 95.125C228.562 96.6875 229.115 97.9688 230.219 98.9688C231.344 99.9479 232.833 100.438 234.688 100.438C237.229 100.438 239.323 99.5521 240.969 97.7812C242.635 95.9896 243.469 93.7292 243.469 91V87.8125ZM273.094 103.688C271.885 104.354 270.292 104.688 268.312 104.688C262.708 104.688 259.906 101.562 259.906 95.3125V76.375H254.406V72H259.906V64.1875L265.031 62.5312V72H273.094V76.375H265.031V94.4062C265.031 96.5521 265.396 98.0833 266.125 99C266.854 99.9167 268.062 100.375 269.75 100.375C271.042 100.375 272.156 100.021 273.094 99.3125V103.688ZM301.75 102.531C299.292 104.01 296.375 104.75 293 104.75C288.438 104.75 284.75 103.271 281.938 100.312C279.146 97.3333 277.75 93.4792 277.75 88.75C277.75 83.4792 279.26 79.25 282.281 76.0625C285.302 72.8542 289.333 71.25 294.375 71.25C297.188 71.25 299.667 71.7708 301.812 72.8125V78.0625C299.438 76.3958 296.896 75.5625 294.188 75.5625C290.917 75.5625 288.229 76.7396 286.125 79.0938C284.042 81.4271 283 84.5 283 88.3125C283 92.0625 283.979 95.0208 285.938 97.1875C287.917 99.3542 290.562 100.438 293.875 100.438C296.667 100.438 299.292 99.5104 301.75 97.6562V102.531ZM336.062 104H330.938V85.5625C330.938 78.8958 328.458 75.5625 323.5 75.5625C321 75.5625 318.896 76.5312 317.188 78.4688C315.479 80.3854 314.625 82.8542 314.625 85.875V104H309.5V56.625H314.625V77.3125H314.75C317.208 73.2708 320.708 71.25 325.25 71.25C332.458 71.25 336.062 75.5938 336.062 84.2812V104Z" fill="black"/>
</svg>
